<?xml version="1.0" encoding="utf-8"?>
<!-- Generator: Adobe Illustrator 19.2.1, SVG Export Plug-In . SVG Version: 6.00 Build 0)  -->
<svg version="1.1" id="Layer_1" xmlns="http://www.w3.org/2000/svg" xmlns:xlink="http://www.w3.org/1999/xlink" x="0px" y="0px"
	 viewBox="0 0 282.2 119.2" style="enable-background:new 0 0 282.2 119.2;" xml:space="preserve">
<style type="text/css">
	.st0{fill:#007CCB;}
	.st1{fill:#58595B;}
	.st2{fill:#BFBFBF;}
</style>
<path class="st0" d="M134.1,32.6c2.4-1.7,4.3-4.1,5.5-6.5c0.9-1.6,2.3-4.1,3.6-6.6c2-4.1,4.8-5.4,4.8-5.4s-4,1.1-6.1,5.5
	c-0.3,0.6-0.6,1.2-0.8,1.7c0.1-2-0.2-4.6-1.5-6.2c-7.2-9-23.5,0.6-23.5,0.6s12.5-11.3,23.6-11.6c10.6-0.3,12,7.8,12,7.8
	s1.8-1.1,3.8-1.6c4.8-1.1,6.9,2.6,6.9,2.6l6-1l-4.5,3.9c0,0,0.1,0.5-0.4,2.4c-0.5,1.9-1.5,3.1-1.5,3.1s6.7,1.3,9.8,10.4
	c3.7,10.7-8.4,25.3-8.4,25.3s5.8-17.4-2.9-23c-8.6-5.5-16,2-19.9,4.7c-3.9,2.7-8.8,5.9-17,9.8c-4.8,2.3-16.1,5.5-16.1,5.5
	s7.7-3.1,14.5-7.8C125.3,44,126,42,126,42s-5.7-0.1-10.1-0.8c-4.4-0.7-7.6-1.9-7.6-1.9S120.3,42.3,134.1,32.6z M157.6,15.1
	c0.5,0.1,1-0.1,1.2-0.7c0.1-0.5-0.1-1-0.7-1.2c-0.5-0.1-1,0.1-1.2,0.7C156.8,14.5,157.1,15,157.6,15.1z"/>
<path class="st1" d="M23.4,60.7c12.4,0,18.6,4.2,18.6,12.5v4.2h-4.7v-4.2c0-5.6-4.7-8.3-14-8.3c-9.3,0-14,2.8-14,8.3
	c0,5.6,4.7,8.3,14,8.3c12.4,0,18.6,4.2,18.6,12.5c0,11.1-6.2,16.7-18.6,16.7c-12.4,0-18.6-4.2-18.6-12.5v-8.3h4.7v8.3
	c0,5.6,4.7,8.3,14,8.3s14-4.2,14-12.5c0-5.6-4.7-8.3-14-8.3C11,85.8,4.8,81.6,4.8,73.2C4.8,64.9,11,60.7,23.4,60.7z"/>
<polygon class="st1" points="48.7,60.7 53.3,60.7 67.3,98.3 81.3,60.7 95.2,98.3 109.2,60.7 113.8,60.7 95.2,110.8 81.3,73.2 
	67.3,110.8 "/>
<rect x="123.4" y="60.7" class="st1" width="4.7" height="50"/>
<path class="st1" d="M146.8,56.6c0-8.3,3.1-12.5,9.3-12.5c6.1,0,3.5,0,3.6,0c0,0,0,0.5-0.2,2.1c-0.1,1.5-0.4,2.1-0.4,2.1
	c-3.1,0,0.1,0-3,0c-3.1,0-4.7,2.8-4.7,8.3v4.2h8.9l-0.1,4.2h-8.8v45.9h-4.7V64.9h-9.3v-4.2h9.3V56.6z"/>
<path class="st1" d="M176.4,64.9h-9.5l0.1-4.2h9.5V44.1h4.7v16.7h14v4.2h-14v33.4c0,5.6,1.6,8.3,4.7,8.3s6.2,0,9.3,0v4.2
	c-0.1,0-3.2,0-9.3,0c-6.2,0-9.3-4.2-9.3-12.5V64.9z"/>
<g>
	<path class="st2" d="M204.7,77.4c0-11.4,5.7-17,17-17c11.4,0,17,5.7,17,17v34.1h-17c-11.4,0-17-5-17-14.9s5.7-14.9,17-14.9h12.8
		v-4.3c0-8.5-4.3-12.8-12.8-12.8c-8.5,0-12.8,4.3-12.8,12.8H204.7z M234.5,85.9h-12.8c-8.5,0-12.8,3.5-12.8,10.6
		c0,7.1,4.3,10.6,12.8,10.6h12.8V85.9z"/>
	<path class="st2" d="M277.1,111.5h-17c-11.4,0-17.1-4.3-17.1-12.8V73.1c0-8.5,5.7-12.8,17-12.8h12.8v-17h4.3L277.1,111.5
		L277.1,111.5z M272.8,64.6H260c-8.5,0-12.8,2.8-12.8,8.5v25.6c0,5.7,4.3,8.5,12.8,8.5h12.8V64.6z"/>
</g>
</svg>
